<?xml version="1.0" encoding="iso-8859-1"?>
<!-- Generator: Adobe Illustrator 19.0.0, SVG Export Plug-In . SVG Version: 6.00 Build 0)  -->
<svg version="1.1" id="Layer_1" xmlns="http://www.w3.org/2000/svg" xmlns:xlink="http://www.w3.org/1999/xlink" x="0px" y="0px"
	 viewBox="0 0 511.999 511.999" style="enable-background:new 0 0 511.999 511.999;" xml:space="preserve">
<circle style="fill:#F8C442;" cx="303.339" cy="229.429" r="109.22"/>
<g>
	<path style="fill:#F4A240;" d="M412.565,229.427c0,60.326-48.896,109.222-109.222,109.222c-6.144,0-12.17-0.507-18.041-1.492
		c51.744-8.592,91.181-53.548,91.181-107.73s-39.437-99.138-91.181-107.73c5.871-0.985,11.897-1.492,18.041-1.492
		C363.669,120.205,412.565,169.102,412.565,229.427z"/>
	<circle style="fill:#F4A240;" cx="239.849" cy="260.799" r="8.585"/>
	<circle style="fill:#F4A240;" cx="263.849" cy="284.799" r="8.585"/>
	<circle style="fill:#F4A240;" cx="336.169" cy="169.839" r="8.585"/>
	<path style="fill:#F4A240;" d="M305.278,82.445c-4.143,0-7.5-3.357-7.5-7.5V23.848c0-4.143,3.357-7.5,7.5-7.5s7.5,3.357,7.5,7.5
		v51.097C312.778,79.088,309.421,82.445,305.278,82.445z"/>
	<path style="fill:#F4A240;" d="M231.224,102.291c-2.592,0-5.113-1.345-6.502-3.751l-25.548-44.251
		c-2.071-3.587-0.842-8.174,2.745-10.245c3.586-2.069,8.175-0.843,10.245,2.745l25.548,44.251c2.071,3.587,0.842,8.174-2.745,10.245
		C233.786,101.966,232.496,102.291,231.224,102.291z"/>
	<path style="fill:#F4A240;" d="M176.993,156.507c-1.272,0-2.562-0.324-3.743-1.006l-44.251-25.547
		c-3.587-2.071-4.816-6.658-2.745-10.245c2.07-3.588,6.656-4.815,10.245-2.745l44.251,25.548c3.587,2.071,4.816,6.658,2.745,10.245
		C182.106,155.163,179.585,156.507,176.993,156.507z"/>
	<path style="fill:#F4A240;" d="M477.802,330.18c-1.272,0-2.563-0.324-3.743-1.006l-44.251-25.549
		c-3.587-2.071-4.816-6.658-2.745-10.245c2.07-3.589,6.659-4.815,10.245-2.745l44.251,25.549c3.587,2.071,4.816,6.658,2.745,10.245
		C482.915,328.836,480.394,330.18,477.802,330.18z"/>
	<path style="fill:#F4A240;" d="M157.155,230.569h-51.096c-4.143,0-7.5-3.357-7.5-7.5s3.357-7.5,7.5-7.5h51.097
		c4.143,0,7.5,3.357,7.5,7.5S161.298,230.569,157.155,230.569z"/>
	<path style="fill:#F4A240;" d="M504.499,230.569h-51.097c-4.143,0-7.5-3.357-7.5-7.5s3.357-7.5,7.5-7.5h51.097
		c4.143,0,7.5,3.357,7.5,7.5S508.642,230.569,504.499,230.569z"/>
	<path style="fill:#F4A240;" d="M433.564,156.507c-2.592,0-5.113-1.345-6.502-3.751c-2.071-3.587-0.842-8.174,2.745-10.245
		l44.251-25.548c3.586-2.069,8.175-0.843,10.245,2.745c2.071,3.587,0.842,8.174-2.745,10.245l-44.251,25.548
		C436.127,156.183,434.837,156.507,433.564,156.507z"/>
	<path style="fill:#F4A240;" d="M379.334,102.291c-1.272,0-2.562-0.324-3.743-1.006c-3.587-2.071-4.816-6.658-2.745-10.245
		l25.548-44.251c2.07-3.588,6.656-4.815,10.245-2.745c3.587,2.071,4.816,6.658,2.745,10.245L385.836,98.54
		C384.447,100.946,381.926,102.291,379.334,102.291z"/>
</g>
<path style="fill:#E2E2E2;" d="M390.449,331.661c-16.428-0.321-31.779,4.194-44.733,12.212c-2.49,1.541-5.748,0.128-6.246-2.758
	c-10.714-62.113-64.845-109.364-130.018-109.364c-60.772,0-111.941,41.088-127.262,96.997c-0.467,1.704-1.996,2.903-3.761,2.979
	c-43.903,1.883-78.864,38.28-78.425,82.749c0.445,45.132,37.884,81.175,83.019,81.175h305.786c45.678,0,82.633-37.347,81.994-83.172
	C470.189,368.49,434.432,332.521,390.449,331.661z"/>
<g>
	<path style="fill:#CCCCCC;" d="M470.789,411.589c0.67,27.278-11.989,51.638-31.923,67.018c2.359-7.644,3.625-15.756,3.625-24.173
		c0-45.296-36.715-82.003-82.003-82.003c-15.844,0-30.636,4.493-43.172,12.273c-2.454,1.523-5.676,0.034-6.167-2.812
		c-10.714-62.113-64.849-109.358-130.021-109.358c-35.943,0-68.532,14.375-92.326,37.702c20.507-46.233,66.814-78.485,120.65-78.485
		c65.173,0,119.301,47.255,130.021,109.363c0.498,2.886,3.756,4.299,6.246,2.758c12.945-8.014,28.289-12.525,44.709-12.209
		C434.079,332.503,469.718,367.942,470.789,411.589z"/>
	<circle style="fill:#CCCCCC;" cx="63.754" cy="429.639" r="8.585"/>
	<circle style="fill:#CCCCCC;" cx="91.619" cy="454.599" r="8.585"/>
	<circle style="fill:#CCCCCC;" cx="190.239" cy="297.129" r="8.585"/>
</g>
<g>
</g>
<g>
</g>
<g>
</g>
<g>
</g>
<g>
</g>
<g>
</g>
<g>
</g>
<g>
</g>
<g>
</g>
<g>
</g>
<g>
</g>
<g>
</g>
<g>
</g>
<g>
</g>
<g>
</g>
</svg>
